ffmpeg started on 2016-11-30 at 09:11:07
Report written to "Output/x264/results/ffmpeg/old_town_cross_2160p50faster11000k.log"
Command line:
Tools/ffmpeg/ffmpeg -benchmark -y -i Input/y4m/old_town_cross_2160p50.y4m -c:v libx264 -preset faster -b:v 11000k -an Output/x264/encoded/old_town_cross_2160p50faster11000k.mkv
ffmpeg version N-82227-gdb23fde Copyright (c) 2000-2016 the FFmpeg developers
  built with gcc 5.4.0 (Ubuntu 5.4.0-6ubuntu1~16.04.2) 20160609
  configuration: --prefix=/home/jaroslav/ffmpeg_build --pkg-config-flags=--static --extra-cflags=-I/home/jaroslav/ffmpeg_build/include --extra-ldflags=-L/home/jaroslav/ffmpeg_build/lib --bindir=/home/jaroslav/bin --enable-gpl --enable-libass --enable-libfdk-aac --enable-libfreetype --enable-libmp3lame --enable-libopus --enable-libtheora --enable-libvorbis --enable-libvpx --enable-libx264 --enable-libx265 --enable-nvenc --enable-libmfx --enable-libxvid --enable-libgsm --enable-libopencore-amrnb --enable-version3 --enable-nonfree
  libavutil      55. 35.100 / 55. 35.100
  libavcodec     57. 66.101 / 57. 66.101
  libavformat    57. 57.100 / 57. 57.100
  libavdevice    57.  2.100 / 57.  2.100
  libavfilter     6. 66.100 /  6. 66.100
  libswscale      4.  3.100 /  4.  3.100
  libswresample   2.  4.100 /  2.  4.100
  libpostproc    54.  2.100 / 54.  2.100
Input #0, yuv4mpegpipe, from 'Input/y4m/old_town_cross_2160p50.y4m':
  Duration: 00:00:10.00, start: 0.000000, bitrate: 4976642 kb/s
    Stream #0:0: Video: rawvideo (I420 / 0x30323449), yuv420p(progressive), 3840x2160, SAR 1:1 DAR 16:9, 50 fps, 50 tbr, 50 tbn, 50 tbc
[libx264 @ 0x4173120] using SAR=1/1
[libx264 @ 0x4173120] using cpu capabilities: MMX2 SSE2Fast SSSE3 SSE4.2 AVX FMA3 AVX2 LZCNT BMI2
[libx264 @ 0x4173120] profile High, level 5.2
[libx264 @ 0x4173120] 264 - core 148 - H.264/MPEG-4 AVC codec - Copyleft 2003-2016 - http://www.videolan.org/x264.html - options: cabac=1 ref=2 deblock=1:0:0 analyse=0x3:0x113 me=hex subme=4 psy=1 psy_rd=1.00:0.00 mixed_ref=0 me_range=16 chroma_me=1 trellis=1 8x8dct=1 cqm=0 deadzone=21,11 fast_pskip=1 chroma_qp_offset=0 threads=6 lookahead_threads=1 sliced_threads=0 nr=0 decimate=1 interlaced=0 bluray_compat=0 constrained_intra=0 bframes=3 b_pyramid=2 b_adapt=1 b_bias=0 direct=1 weightb=1 open_gop=0 weightp=1 keyint=250 keyint_min=25 scenecut=40 intra_refresh=0 rc_lookahead=20 rc=abr mbtree=1 bitrate=11000 ratetol=1.0 qcomp=0.60 qpmin=0 qpmax=69 qpstep=4 ip_ratio=1.40 aq=1:1.00
Output #0, matroska, to 'Output/x264/encoded/old_town_cross_2160p50faster11000k.mkv':
  Metadata:
    encoder         : Lavf57.57.100
    Stream #0:0: Video: h264 (libx264) (H264 / 0x34363248), yuv420p, 3840x2160 [SAR 1:1 DAR 16:9], q=-1--1, 11000 kb/s, 50 fps, 1k tbn, 50 tbc
    Metadata:
      encoder         : Lavc57.66.101 libx264
    Side data:
      cpb: bitrate max/min/avg: 0/0/11000000 buffer size: 0 vbv_delay: -1
Stream mapping:
  Stream #0:0 -> #0:0 (rawvideo (native) -> h264 (libx264))
Press [q] to stop, [?] for help
frame=   27 fps= 21 q=0.0 size=       0kB time=00:00:00.00 bitrate=N/A speed=   0x    frame=   35 fps= 19 q=42.0 size=       1kB time=00:00:00.04 bitrate= 143.0kbits/s speed=0.0227x    frame=   46 fps= 20 q=41.0 size=       1kB time=00:00:00.26 bitrate=  22.5kbits/s speed=0.113x    frame=   56 fps= 19 q=36.0 size=       1kB time=00:00:00.46 bitrate=  12.7kbits/s speed=0.153x    frame=   68 fps= 18 q=35.0 size=       1kB time=00:00:00.70 bitrate=   8.4kbits/s speed=0.188x    frame=   78 fps= 18 q=34.0 size=       1kB time=00:00:00.90 bitrate=   6.5kbits/s speed=0.213x    frame=   88 fps= 18 q=33.0 size=       1kB time=00:00:01.10 bitrate=   5.3kbits/s speed=0.223x    frame=   99 fps= 18 q=33.0 size=       1kB time=00:00:01.32 bitrate=   4.4kbits/s speed=0.242x    frame=  108 fps= 18 q=33.0 size=       1kB time=00:00:01.50 bitrate=   3.9kbits/s speed=0.245x    frame=  119 fps= 18 q=33.0 size=       1kB time=00:00:01.72 bitrate=   3.4kbits/s speed=0.259x    frame=  127 fps= 18 q=33.0 size=       1kB time=00:00:01.88 bitrate=   3.1kbits/s speed=0.262x    frame=  136 fps= 17 q=33.0 size=       1kB time=00:00:02.06 bitrate=   2.8kbits/s speed=0.264x    frame=  146 fps= 18 q=33.0 size=       1kB time=00:00:02.26 bitrate=   2.6kbits/s speed=0.272x    frame=  155 fps= 18 q=33.0 size=       1kB time=00:00:02.44 bitrate=   2.4kbits/s speed=0.276x    frame=  163 fps= 17 q=33.0 size=       1kB time=00:00:02.60 bitrate=   2.3kbits/s speed=0.278x    frame=  172 fps= 17 q=33.0 size=       1kB time=00:00:02.78 bitrate=   2.1kbits/s speed=0.279x    frame=  182 fps= 17 q=33.0 size=       1kB time=00:00:02.98 bitrate=   2.0kbits/s speed=0.284x    frame=  190 fps= 17 q=33.0 size=       1kB time=00:00:03.14 bitrate=   1.9kbits/s speed=0.285x    frame=  200 fps= 17 q=33.0 size=       1kB time=00:00:03.34 bitrate=   1.8kbits/s speed=0.287x    frame=  210 fps= 17 q=33.0 size=       1kB time=00:00:03.54 bitrate=   1.7kbits/s speed=0.29x    frame=  220 fps= 17 q=33.0 size=       1kB time=00:00:03.74 bitrate=   1.6kbits/s speed=0.292x    frame=  230 fps= 17 q=33.0 size=    5153kB time=00:00:03.94 bitrate=10711.2kbits/s speed=0.294x    frame=  239 fps= 17 q=33.0 size=    5153kB time=00:00:04.12 bitrate=10243.4kbits/s speed=0.295x    frame=  242 fps= 17 q=33.0 size=    5153kB time=00:00:04.18 bitrate=10096.4kbits/s speed=0.286x    frame=  245 fps= 16 q=33.0 size=    5153kB time=00:00:04.24 bitrate=9953.6kbits/s speed=0.275x    frame=  250 fps= 16 q=33.0 size=    5153kB time=00:00:04.34 bitrate=9724.3kbits/s speed=0.271x    frame=  255 fps= 15 q=33.0 size=    5153kB time=00:00:04.44 bitrate=9505.3kbits/s speed=0.268x    frame=  260 fps= 15 q=33.0 size=    5153kB time=00:00:04.54 bitrate=9296.0kbits/s speed=0.265x    frame=  265 fps= 15 q=33.0 size=    5153kB time=00:00:04.64 bitrate=9095.7kbits/s speed=0.262x    frame=  270 fps= 15 q=34.0 size=    5153kB time=00:00:04.74 bitrate=8903.8kbits/s speed=0.259x    frame=  275 fps= 14 q=30.0 size=    5153kB time=00:00:04.84 bitrate=8719.9kbits/s speed=0.255x    frame=  285 fps= 15 q=34.0 size=    6683kB time=00:00:05.04 bitrate=10860.2kbits/s speed=0.258x    frame=  295 fps= 15 q=34.0 size=    6683kB time=00:00:05.24 bitrate=10445.8kbits/s speed=0.26x    frame=  305 fps= 15 q=34.0 size=    6683kB time=00:00:05.44 bitrate=10061.8kbits/s speed=0.263x    frame=  315 fps= 15 q=34.0 size=    6683kB time=00:00:05.64 bitrate=9705.1kbits/s speed=0.266x    frame=  324 fps= 15 q=34.0 size=    6683kB time=00:00:05.82 bitrate=9405.0kbits/s speed=0.268x    frame=  333 fps= 15 q=34.0 size=    6683kB time=00:00:06.00 bitrate=9122.9kbits/s speed=0.268x    frame=  344 fps= 15 q=33.0 size=    6683kB time=00:00:06.22 bitrate=8800.2kbits/s speed=0.272x    frame=  352 fps= 15 q=33.0 size=    6683kB time=00:00:06.38 bitrate=8579.6kbits/s speed=0.272x    frame=  361 fps= 15 q=33.0 size=    6683kB time=00:00:06.56 bitrate=8344.2kbits/s speed=0.272x    frame=  372 fps= 15 q=33.0 size=    6683kB time=00:00:06.78 bitrate=8073.5kbits/s speed=0.276x    frame=  381 fps= 15 q=33.0 size=    6683kB time=00:00:06.96 bitrate=7864.7kbits/s speed=0.275x    frame=  391 fps= 15 q=33.0 size=    6683kB time=00:00:07.16 bitrate=7645.1kbits/s speed=0.277x    frame=  399 fps= 15 q=33.0 size=    6683kB time=00:00:07.32 bitrate=7478.0kbits/s speed=0.278x    frame=  409 fps= 15 q=33.0 size=    6683kB time=00:00:07.52 bitrate=7279.1kbits/s speed=0.279x    frame=  419 fps= 15 q=33.0 size=    6683kB time=00:00:07.72 bitrate=7090.6kbits/s speed=0.28x    frame=  428 fps= 15 q=33.0 size=    6683kB time=00:00:07.90 bitrate=6929.0kbits/s speed=0.281x    frame=  437 fps= 15 q=33.0 size=    6683kB time=00:00:08.08 bitrate=6774.7kbits/s speed=0.282x    frame=  446 fps= 15 q=33.0 size=    6683kB time=00:00:08.26 bitrate=6627.1kbits/s speed=0.283x    frame=  455 fps= 15 q=33.0 size=    6683kB time=00:00:08.44 bitrate=6485.8kbits/s speed=0.284x    frame=  464 fps= 15 q=33.0 size=    6683kB time=00:00:08.62 bitrate=6350.3kbits/s speed=0.284x    frame=  473 fps= 15 q=33.0 size=    6683kB time=00:00:08.80 bitrate=6220.5kbits/s speed=0.285x    frame=  482 fps= 15 q=33.0 size=   11851kB time=00:00:08.98 bitrate=10809.7kbits/s speed=0.286x    frame=  483 fps= 15 q=33.0 size=   11851kB time=00:00:09.00 bitrate=10785.7kbits/s speed=0.282x    frame=  486 fps= 15 q=33.0 size=   11851kB time=00:00:09.06 bitrate=10714.3kbits/s speed=0.277x    frame=  491 fps= 15 q=33.0 size=   11851kB time=00:00:09.16 bitrate=10597.3kbits/s speed=0.275x    frame=  496 fps= 15 q=33.0 size=   11851kB time=00:00:09.26 bitrate=10482.9kbits/s speed=0.273x    frame=  500 fps= 15 q=34.0 size=   11851kB time=00:00:09.34 bitrate=10393.1kbits/s speed=0.271x    frame=  500 fps= 14 q=-1.0 Lsize=   13710kB time=00:00:09.94 bitrate=11297.7kbits/s speed=0.278x    
video:13705kB audio:0kB subtitle:0kB other streams:0kB global headers:0kB muxing overhead: 0.033369%
bench: utime=116.032s
bench: maxrss=1348652kB
[libx264 @ 0x4173120] frame I:3     Avg QP:29.12  size:407735
[libx264 @ 0x4173120] frame P:183   Avg QP:31.46  size: 43235
[libx264 @ 0x4173120] frame B:314   Avg QP:33.35  size: 15599
[libx264 @ 0x4173120] consecutive B-frames: 16.0%  0.8%  0.0% 83.2%
[libx264 @ 0x4173120] mb I  I16..4: 29.2% 53.6% 17.2%
[libx264 @ 0x4173120] mb P  I16..4:  2.9%  2.8%  0.0%  P16..4: 26.6%  3.7%  0.4%  0.0%  0.0%    skip:63.5%
[libx264 @ 0x4173120] mb B  I16..4:  0.5%  0.4%  0.0%  B16..8: 13.9%  0.5%  0.0%  direct:10.4%  skip:74.2%  L0:37.1% L1:62.2% BI: 0.7%
[libx264 @ 0x4173120] final ratefactor: 25.53
[libx264 @ 0x4173120] 8x8 transform intra:49.6% inter:63.1%
[libx264 @ 0x4173120] coded y,uvDC,uvAC intra: 47.6% 40.5% 17.9% inter: 6.0% 4.7% 0.0%
[libx264 @ 0x4173120] i16 v,h,dc,p: 36% 28% 27%  8%
[libx264 @ 0x4173120] i8 v,h,dc,ddl,ddr,vr,hd,vl,hu:  9% 14% 55%  3%  3%  3%  5%  3%  4%
[libx264 @ 0x4173120] i4 v,h,dc,ddl,ddr,vr,hd,vl,hu: 17% 26% 11%  7%  7%  7% 10%  6%  9%
[libx264 @ 0x4173120] i8c dc,h,v,p: 71% 13% 14%  1%
[libx264 @ 0x4173120] Weighted P-Frames: Y:0.5% UV:0.0%
[libx264 @ 0x4173120] ref P L0: 74.0% 26.0%
[libx264 @ 0x4173120] ref B L0: 88.2% 11.8%
[libx264 @ 0x4173120] ref B L1: 95.8%  4.2%
[libx264 @ 0x4173120] kb/s:11226.75
